<?xml version="1.0" encoding="UTF-8"?>
<svg width="796px" height="857px" viewBox="0 0 796 857" version="1.1" xmlns="http://www.w3.org/2000/svg" xmlns:xlink="http://www.w3.org/1999/xlink">
    <defs>
        <linearGradient x1="126.985688%" y1="107.852485%" x2="58.7225508%" y2="56.8523294%" id="linearGradient-1">
            <stop stop-color="#0E0F23" stop-opacity="0" offset="0%"></stop>
            <stop stop-color="#0F1225" stop-opacity="0.0383" offset="11.96%"></stop>
            <stop stop-color="#131A2A" stop-opacity="0.0681" offset="21.27%"></stop>
            <stop stop-color="#182733" stop-opacity="0.095" offset="29.68%"></stop>
            <stop stop-color="#1E3740" stop-opacity="0.1202" offset="37.56%"></stop>
            <stop stop-color="#254C51" stop-opacity="0.1443" offset="45.08%"></stop>
            <stop stop-color="#2A6967" stop-opacity="0.1674" offset="52.33%"></stop>
            <stop stop-color="#298F83" stop-opacity="0.1895" offset="59.22%"></stop>
            <stop stop-color="#23A694" stop-opacity="0.2" offset="62.5%"></stop>
            <stop stop-color="#22AC98" offset="100%"></stop>
        </linearGradient>
        <linearGradient x1="101.235475%" y1="39.3811803%" x2="43.9006555%" y2="50.1343914%" id="linearGradient-2">
            <stop stop-color="#0E0F23" stop-opacity="0" offset="0%"></stop>
            <stop stop-color="#101225" stop-opacity="0.0382" offset="11.94%"></stop>
            <stop stop-color="#151A2C" stop-opacity="0.0679" offset="21.22%"></stop>
            <stop stop-color="#1C2638" stop-opacity="0.0948" offset="29.62%"></stop>
            <stop stop-color="#25364A" stop-opacity="0.1199" offset="37.48%"></stop>
            <stop stop-color="#304C63" stop-opacity="0.144" offset="44.99%"></stop>
            <stop stop-color="#3C6A88" stop-opacity="0.1671" offset="52.21%"></stop>
            <stop stop-color="#4592BB" stop-opacity="0.1891" offset="59.09%"></stop>
            <stop stop-color="#46ACE1" stop-opacity="0.2" offset="62.5%"></stop>
            <stop stop-color="#49ADE2" offset="100%"></stop>
        </linearGradient>
        <linearGradient x1="-27.6509266%" y1="121.239199%" x2="44.5934841%" y2="56.2286855%" id="linearGradient-3">
            <stop stop-color="#0E0F23" stop-opacity="0" offset="0%"></stop>
            <stop stop-color="#0F1225" stop-opacity="0.0383" offset="11.96%"></stop>
            <stop stop-color="#131A2A" stop-opacity="0.0681" offset="21.27%"></stop>
            <stop stop-color="#182733" stop-opacity="0.095" offset="29.68%"></stop>
            <stop stop-color="#1E3740" stop-opacity="0.1202" offset="37.56%"></stop>
            <stop stop-color="#254C51" stop-opacity="0.1443" offset="45.08%"></stop>
            <stop stop-color="#2A6967" stop-opacity="0.1674" offset="52.33%"></stop>
            <stop stop-color="#298F83" stop-opacity="0.1895" offset="59.22%"></stop>
            <stop stop-color="#23A694" stop-opacity="0.2" offset="62.5%"></stop>
            <stop stop-color="#22AC98" offset="100%"></stop>
        </linearGradient>
        <linearGradient x1="-2.46287402%" y1="39.6173264%" x2="58.9991793%" y2="50.514758%" id="linearGradient-4">
            <stop stop-color="#0E0F23" stop-opacity="0" offset="0%"></stop>
            <stop stop-color="#101225" stop-opacity="0.0382" offset="11.94%"></stop>
            <stop stop-color="#151A2C" stop-opacity="0.0679" offset="21.22%"></stop>
            <stop stop-color="#1C2638" stop-opacity="0.0948" offset="29.62%"></stop>
            <stop stop-color="#25364A" stop-opacity="0.1199" offset="37.48%"></stop>
            <stop stop-color="#304C63" stop-opacity="0.144" offset="44.99%"></stop>
            <stop stop-color="#3C6A88" stop-opacity="0.1671" offset="52.21%"></stop>
            <stop stop-color="#4592BB" stop-opacity="0.1891" offset="59.09%"></stop>
            <stop stop-color="#46ACE1" stop-opacity="0.2" offset="62.5%"></stop>
            <stop stop-color="#49ADE2" offset="99.55%"></stop>
        </linearGradient>
        <linearGradient x1="50.0005764%" y1="130.847278%" x2="50.0005764%" y2="40.1646373%" id="linearGradient-5">
            <stop stop-color="#0E0F23" stop-opacity="0" offset="0%"></stop>
            <stop stop-color="#121124" stop-opacity="0.0365" offset="11.42%"></stop>
            <stop stop-color="#1B1627" stop-opacity="0.0649" offset="20.3%"></stop>
            <stop stop-color="#2A1D2B" stop-opacity="0.0906" offset="28.32%"></stop>
            <stop stop-color="#3D272F" stop-opacity="0.1147" offset="35.85%"></stop>
            <stop stop-color="#563234" stop-opacity="0.1377" offset="43.03%"></stop>
            <stop stop-color="#794137" stop-opacity="0.1598" offset="49.94%"></stop>
            <stop stop-color="#A95336" stop-opacity="0.1808" offset="56.51%"></stop>
            <stop stop-color="#E5672F" stop-opacity="0.2" offset="62.5%"></stop>
            <stop stop-color="#E5672F" offset="100%"></stop>
        </linearGradient>
        <linearGradient x1="49.9738354%" y1="-0.933642022%" x2="49.9738354%" y2="53.8956429%" id="linearGradient-6">
            <stop stop-color="#0E0F23" stop-opacity="0" offset="0%"></stop>
            <stop stop-color="#121124" stop-opacity="0.0365" offset="8.09%"></stop>
            <stop stop-color="#1B1627" stop-opacity="0.0649" offset="14.38%"></stop>
            <stop stop-color="#2A1D2B" stop-opacity="0.0906" offset="20.06%"></stop>
            <stop stop-color="#3D272F" stop-opacity="0.1147" offset="25.39%"></stop>
            <stop stop-color="#563234" stop-opacity="0.1377" offset="30.48%"></stop>
            <stop stop-color="#794137" stop-opacity="0.1598" offset="35.37%"></stop>
            <stop stop-color="#A95336" stop-opacity="0.1808" offset="40.03%"></stop>
            <stop stop-color="#E5672F" stop-opacity="0.2" offset="44.27%"></stop>
            <stop stop-color="#E5672F" offset="100%"></stop>
        </linearGradient>
    </defs>
    <g id="Page-1" stroke="none" stroke-width="1" fill="none" fill-rule="evenodd">
        <g id="Logo-cannasoft-SVG" fill-rule="nonzero">
            <g id="Group">
                <g id="Shape">
                    <path d="M375.53,601.12 C271.54,598.01 162.47,530.57 104.78,442.73 C73.24,394.7 54.03,340.68 42.67,284.8 C44.53,284.71 46.46,284.65 48.43,284.61 C66.94,284.27 85.29,286.46 103.19,291.13 C158.69,305.61 200.57,343.01 229.95,390.14 C226.89,394.86 225.09,400.47 225.09,406.49 C225.09,423.21 238.79,436.81 255.63,436.81 C272.47,436.81 286.17,423.21 286.17,406.49 C286.17,389.78 272.49,376.18 255.66,376.17 C206.63,297.99 117.39,239.91 21.46,257.96 C13.16,259.52 9.96,268.65 11.22,275.87 C29.16,378.29 74.5,476.96 157.03,543.62 C208.04,584.82 269.65,613.11 334.33,625.07 C347.85,627.57 361.76,629.83 375.54,630.24 C394.4,630.79 394.39,601.68 375.53,601.12 Z M273.95,406.49 C273.95,416.52 265.73,424.68 255.63,424.68 C245.53,424.68 237.31,416.52 237.31,406.49 C237.31,396.46 245.53,388.3 255.63,388.3 C265.73,388.3 273.95,396.46 273.95,406.49 Z" fill="url(#linearGradient-1)"></path>
                    <path d="M380.88,615.49 C358.76,636.69 324.72,653.73 294.56,666.04 C212.55,699.5 122.87,707.48 35.08,701.7 C51.19,666.64 88.17,641.91 124.26,626.91 C129.66,631.87 136.84,634.93 144.74,634.93 C161.46,634.93 175.06,621.33 175.06,604.61 C175.06,587.89 161.46,574.29 144.74,574.29 C129.81,574.29 117.39,585.15 114.9,599.37 C64.73,620.01 13.98,657.11 1.11,710.86 C-1.24,720.68 5.6,728.43 15.15,729.28 C112.94,738 214.31,730.4 305.82,692.66 C339.27,678.87 374.97,661.45 401.46,636.07 C415.02,623.09 394.41,602.52 380.88,615.49 Z M144.74,586.42 C154.77,586.42 162.93,594.58 162.93,604.61 C162.93,614.64 154.77,622.8 144.74,622.8 C134.71,622.8 126.55,614.64 126.55,604.61 C126.55,594.58 134.71,586.42 144.74,586.42 Z" fill="url(#linearGradient-2)"></path>
                    <path d="M774.53,263.23 C678.48,245.18 589.13,303.26 540.04,381.44 C523.19,381.46 509.5,395.05 509.5,411.76 C509.5,428.48 523.22,442.08 540.08,442.08 C556.94,442.08 570.66,428.48 570.66,411.76 C570.66,405.74 568.86,400.14 565.8,395.41 C595.21,348.27 637.15,310.88 692.71,296.4 C710.63,291.73 729.01,289.53 747.53,289.88 C749.5,289.92 751.43,289.98 753.29,290.07 C741.91,345.95 722.68,399.97 691.1,448 C633.34,535.84 524.13,603.28 420.02,606.39 C401.14,606.95 401.13,636.07 420.02,635.5 C433.82,635.09 447.74,632.83 461.28,630.33 C526.03,618.37 587.72,590.09 638.79,548.88 C721.42,482.22 766.82,383.54 784.78,281.13 C786.04,273.92 782.84,264.79 774.53,263.23 Z M540.07,429.96 C529.95,429.96 521.72,421.8 521.72,411.77 C521.72,401.74 529.95,393.58 540.07,393.58 C550.19,393.58 558.42,401.74 558.42,411.77 C558.42,421.8 550.19,429.96 540.07,429.96 Z" fill="url(#linearGradient-3)"></path>
                    <path d="M794.89,716.14 C782.02,662.39 731.27,625.29 681.1,604.65 C678.61,590.42 666.19,579.57 651.26,579.57 C634.54,579.57 620.94,593.17 620.94,609.89 C620.94,626.61 634.54,640.21 651.26,640.21 C659.16,640.21 666.34,637.15 671.74,632.19 C707.83,647.19 744.81,671.92 760.92,706.98 C673.13,712.76 583.45,704.78 501.44,671.32 C471.28,659.01 437.24,641.97 415.12,620.77 C401.58,607.8 380.98,628.37 394.54,641.35 C421.03,666.73 456.74,684.15 490.18,697.94 C581.69,735.68 683.06,743.28 780.85,734.56 C790.4,733.71 797.24,725.97 794.89,716.14 Z M651.26,628.08 C641.23,628.08 633.07,619.92 633.07,609.89 C633.07,599.86 641.23,591.7 651.26,591.7 C661.29,591.7 669.45,599.86 669.45,609.89 C669.45,619.92 661.29,628.08 651.26,628.08 Z" fill="url(#linearGradient-4)"></path>
                    <path d="M418.84,49.71 C423.15,44.47 425.75,37.76 425.75,30.46 C425.75,13.74 412.15,0.14 395.43,0.14 C378.71,0.14 365.11,13.74 365.11,30.46 C365.11,37.15 367.31,43.32 371,48.34 C280.81,211.5 265.94,407.33 354.74,574.7 C361.31,587.09 368.27,599.56 376.58,610.9 C380.31,615.98 385.67,617.6 390.71,617.01 C396.48,623.4 408.62,625.37 415.37,616.17 C423.68,604.84 430.64,592.36 437.21,579.97 C526.72,411.27 510.94,213.63 418.84,49.71 Z M395.42,12.27 C405.45,12.27 413.61,20.43 413.61,30.46 C413.61,40.49 405.45,48.65 395.42,48.65 C385.39,48.65 377.23,40.49 377.23,30.46 C377.23,20.43 385.39,12.27 395.42,12.27 Z M397.81,590.67 C330.36,494.69 310.42,359.67 329.58,246.77 C340.43,182.85 363.42,122.36 394.51,65.75 C427.09,123.87 451.2,186.13 462.38,252.04 C481.19,362.89 462.33,495.07 397.81,590.67 Z" fill="url(#linearGradient-5)"></path>
                    <path d="M413.62,793.25 L413.62,215.42 C413.62,205.71 406.38,197.83 397.45,197.83 C388.52,197.83 381.28,205.7 381.28,215.42 L381.28,793.38 C372.26,799.37 366.22,810.14 366.22,822.45 C366.22,841.24 380.28,856.53 397.56,856.53 C414.84,856.53 428.9,841.24 428.9,822.45 C428.88,810.06 422.74,799.22 413.62,793.25 Z M397.54,842.9 C387.17,842.9 378.74,833.73 378.74,822.45 C378.74,811.18 387.17,802 397.54,802 C407.91,802 416.340009,811.17 416.340009,822.45 C416.35,833.73 407.91,842.9 397.54,842.9 Z" fill="url(#linearGradient-6)"></path>
                </g>
            </g>
        </g>
    </g>
</svg>